<svg xmlns="http://www.w3.org/2000/svg" viewBox="0 0 96 96">
  <rect width="96" height="96" rx="18" fill="#bc6c25" />
  <g transform="translate(10, 18) scale(0.9)">
    <g stroke-linecap="round" fill-rule="nonzero" font-size="9pt" fill="white">
      <path
        d="M 52.188 59.938 L 46.188 59.938 L 46.188 11.938 L 52.188 11.938 L 52.188 39.656 L 76.094 23.938 L 85.188 23.938 L 59.781 40.844 L 86.188 59.938 L 77.25 59.938 L 52.188 41.469 L 52.188 59.938 Z M 38 59.938 L 0 59.938 L 0 54.938 L 30.406 28.563 L 2 28.563 L 2 23.938 L 38 23.938 L 38 28.938 L 8.031 55.25 L 38 55.25 L 38 59.938 Z M 31.688 5.375 L 12 18 L 10 15 L 28 0 L 31.688 5.375 Z" />
    </g>
  </g>
</svg>