<svg xmlns="http://www.w3.org/2000/svg" viewBox="0 0 246.219 60.625">
  <g 
    stroke-linecap="round" 
    fill-rule="nonzero" 
    font-size="9pt" 
    fill="#bc6c25"
  >
    <path d="M 101.156 59.938 L 95.156 59.938 L 95.156 11.938 L 101.156 11.938 L 101.156 39.656 L 125.063 23.938 L 134.156 23.938 L 108.75 40.844 L 135.156 59.938 L 126.219 59.938 L 101.156 41.469 L 101.156 59.938 Z M 38 59.938 L 0 59.938 L 0 54.938 L 30.406 28.563 L 2 28.563 L 2 23.938 L 38 23.938 L 38 28.938 L 8.031 55.25 L 38 55.25 L 38 59.938 Z M 81.625 49.25 L 87.219 49.25 Q 87.219 52.641 86.367 54.816 A 8.01 8.01 0 0 1 86.016 55.594 Q 84.813 57.906 82.344 58.969 Q 80.03 59.965 76.522 60.288 A 32.888 32.888 0 0 1 76.047 60.328 Q 72.219 60.625 66.938 60.625 Q 60.906 60.625 56.703 60.016 A 19.189 19.189 0 0 1 53.228 59.2 A 12.302 12.302 0 0 1 49.922 57.516 A 9.606 9.606 0 0 1 47.042 54.022 A 14.054 14.054 0 0 1 46.172 51.844 A 21.88 21.88 0 0 1 45.505 48.945 Q 45.001 45.899 45 41.766 A 65.414 65.414 0 0 1 45 41.75 A 54.292 54.292 0 0 1 45.111 38.16 Q 45.356 34.473 46.141 31.938 A 12.429 12.429 0 0 1 47.637 28.703 A 9.102 9.102 0 0 1 49.844 26.375 A 12.374 12.374 0 0 1 53.128 24.698 A 19.293 19.293 0 0 1 56.578 23.875 Q 59.731 23.403 63.947 23.287 A 103.742 103.742 0 0 1 66.781 23.25 A 83.448 83.448 0 0 1 70.866 23.345 Q 72.968 23.448 74.794 23.664 A 37.493 37.493 0 0 1 78.219 24.219 A 15.447 15.447 0 0 1 81.493 25.282 Q 83.548 26.235 84.857 27.755 A 8.596 8.596 0 0 1 84.984 27.906 A 8.896 8.896 0 0 1 86.584 30.996 Q 87 32.361 87.144 34.036 A 21.596 21.596 0 0 1 87.219 35.875 L 87.219 43.594 L 51.031 43.594 Q 51.063 47.594 51.594 50 A 6.834 6.834 0 0 0 52.673 52.544 A 5.09 5.09 0 0 0 53.719 53.625 A 6.87 6.87 0 0 0 55.707 54.637 Q 56.898 55.039 58.484 55.234 Q 61.656 55.625 66.938 55.625 Q 70.203 55.625 72.605 55.536 A 74.232 74.232 0 0 0 74.609 55.437 Q 77.531 55.25 79.047 54.609 A 3.66 3.66 0 0 0 80.995 52.903 A 3.274 3.274 0 0 0 81.094 52.687 Q 81.625 51.406 81.625 49.25 Z M 51.031 38.875 L 81.469 38.875 L 81.469 35.875 A 14.374 14.374 0 0 0 81.287 33.473 A 8.332 8.332 0 0 0 80.953 32.141 Q 80.438 30.656 78.938 29.797 Q 77.534 28.993 74.886 28.64 A 24.408 24.408 0 0 0 74.516 28.594 A 42.873 42.873 0 0 0 72.058 28.384 Q 70.924 28.317 69.604 28.284 A 111.337 111.337 0 0 0 66.781 28.25 Q 61.688 28.25 58.578 28.625 Q 55.694 28.973 54.087 29.925 A 5.674 5.674 0 0 0 53.844 30.078 A 5.362 5.362 0 0 0 51.645 33.265 A 7.522 7.522 0 0 0 51.641 33.281 A 15.367 15.367 0 0 0 51.239 35.398 Q 51.096 36.542 51.051 37.926 A 39.646 39.646 0 0 0 51.031 38.875 Z M 173.656 49.25 L 179.25 49.25 Q 179.25 52.641 178.399 54.816 A 8.01 8.01 0 0 1 178.047 55.594 Q 176.844 57.906 174.375 58.969 Q 172.061 59.965 168.553 60.288 A 32.888 32.888 0 0 1 168.078 60.328 Q 164.25 60.625 158.969 60.625 Q 152.938 60.625 148.734 60.016 A 19.189 19.189 0 0 1 145.259 59.2 A 12.302 12.302 0 0 1 141.953 57.516 A 9.606 9.606 0 0 1 139.073 54.022 A 14.054 14.054 0 0 1 138.203 51.844 A 21.88 21.88 0 0 1 137.536 48.945 Q 137.032 45.899 137.031 41.766 A 65.414 65.414 0 0 1 137.031 41.75 A 54.292 54.292 0 0 1 137.143 38.16 Q 137.388 34.473 138.172 31.938 A 12.429 12.429 0 0 1 139.668 28.703 A 9.102 9.102 0 0 1 141.875 26.375 A 12.374 12.374 0 0 1 145.159 24.698 A 19.293 19.293 0 0 1 148.609 23.875 Q 151.763 23.403 155.978 23.287 A 103.742 103.742 0 0 1 158.813 23.25 A 83.448 83.448 0 0 1 162.897 23.345 Q 164.999 23.448 166.825 23.664 A 37.493 37.493 0 0 1 170.25 24.219 A 15.447 15.447 0 0 1 173.524 25.282 Q 175.579 26.235 176.889 27.755 A 8.596 8.596 0 0 1 177.016 27.906 A 8.896 8.896 0 0 1 178.615 30.996 Q 179.032 32.361 179.175 34.036 A 21.596 21.596 0 0 1 179.25 35.875 L 179.25 43.594 L 143.063 43.594 Q 143.094 47.594 143.625 50 A 6.834 6.834 0 0 0 144.704 52.544 A 5.09 5.09 0 0 0 145.75 53.625 A 6.87 6.87 0 0 0 147.738 54.637 Q 148.93 55.039 150.516 55.234 Q 153.688 55.625 158.969 55.625 Q 162.234 55.625 164.636 55.536 A 74.232 74.232 0 0 0 166.641 55.437 Q 169.563 55.25 171.078 54.609 A 3.66 3.66 0 0 0 173.026 52.903 A 3.274 3.274 0 0 0 173.125 52.687 Q 173.656 51.406 173.656 49.25 Z M 143.063 38.875 L 173.5 38.875 L 173.5 35.875 A 14.374 14.374 0 0 0 173.318 33.473 A 8.332 8.332 0 0 0 172.984 32.141 Q 172.469 30.656 170.969 29.797 Q 169.565 28.993 166.918 28.64 A 24.408 24.408 0 0 0 166.547 28.594 A 42.873 42.873 0 0 0 164.09 28.384 Q 162.955 28.317 161.636 28.284 A 111.337 111.337 0 0 0 158.813 28.25 Q 153.719 28.25 150.609 28.625 Q 147.725 28.973 146.118 29.925 A 5.674 5.674 0 0 0 145.875 30.078 A 5.362 5.362 0 0 0 143.676 33.265 A 7.522 7.522 0 0 0 143.672 33.281 A 15.367 15.367 0 0 0 143.271 35.398 Q 143.128 36.542 143.082 37.926 A 39.646 39.646 0 0 0 143.062 38.875 Z M 240.625 49.25 L 246.219 49.25 Q 246.219 52.641 245.367 54.816 A 8.01 8.01 0 0 1 245.016 55.594 Q 243.813 57.906 241.344 58.969 Q 239.03 59.965 235.522 60.288 A 32.888 32.888 0 0 1 235.047 60.328 Q 231.219 60.625 225.938 60.625 Q 219.906 60.625 215.703 60.016 A 19.189 19.189 0 0 1 212.228 59.2 A 12.302 12.302 0 0 1 208.922 57.516 A 9.606 9.606 0 0 1 206.042 54.022 A 14.054 14.054 0 0 1 205.172 51.844 A 21.88 21.88 0 0 1 204.505 48.945 Q 204.001 45.899 204 41.766 A 65.414 65.414 0 0 1 204 41.75 A 54.292 54.292 0 0 1 204.111 38.16 Q 204.356 34.473 205.141 31.938 A 12.429 12.429 0 0 1 206.637 28.703 A 9.102 9.102 0 0 1 208.844 26.375 A 12.374 12.374 0 0 1 212.128 24.698 A 19.293 19.293 0 0 1 215.578 23.875 Q 218.731 23.403 222.947 23.287 A 103.742 103.742 0 0 1 225.781 23.25 A 83.448 83.448 0 0 1 229.866 23.345 Q 231.968 23.448 233.794 23.664 A 37.493 37.493 0 0 1 237.219 24.219 A 15.447 15.447 0 0 1 240.493 25.282 Q 242.548 26.235 243.857 27.755 A 8.596 8.596 0 0 1 243.984 27.906 A 8.896 8.896 0 0 1 245.584 30.996 Q 246 32.361 246.144 34.036 A 21.596 21.596 0 0 1 246.219 35.875 L 246.219 43.594 L 210.031 43.594 Q 210.063 47.594 210.594 50 A 6.834 6.834 0 0 0 211.673 52.544 A 5.09 5.09 0 0 0 212.719 53.625 A 6.87 6.87 0 0 0 214.707 54.637 Q 215.898 55.039 217.484 55.234 Q 220.656 55.625 225.938 55.625 Q 229.203 55.625 231.605 55.536 A 74.232 74.232 0 0 0 233.609 55.437 Q 236.531 55.25 238.047 54.609 A 3.66 3.66 0 0 0 239.995 52.903 A 3.274 3.274 0 0 0 240.094 52.687 Q 240.625 51.406 240.625 49.25 Z M 210.031 38.875 L 240.469 38.875 L 240.469 35.875 A 14.374 14.374 0 0 0 240.287 33.473 A 8.332 8.332 0 0 0 239.953 32.141 Q 239.438 30.656 237.938 29.797 Q 236.534 28.993 233.886 28.64 A 24.408 24.408 0 0 0 233.516 28.594 A 42.873 42.873 0 0 0 231.058 28.384 Q 229.924 28.317 228.604 28.284 A 111.337 111.337 0 0 0 225.781 28.25 Q 220.688 28.25 217.578 28.625 Q 214.694 28.973 213.087 29.925 A 5.674 5.674 0 0 0 212.844 30.078 A 5.362 5.362 0 0 0 210.645 33.265 A 7.522 7.522 0 0 0 210.641 33.281 A 15.367 15.367 0 0 0 210.239 35.398 Q 210.096 36.542 210.051 37.926 A 39.646 39.646 0 0 0 210.031 38.875 Z M 195 59.938 L 189 59.938 L 189 11.938 L 195 11.938 L 195 59.938 Z M 31.688 5.375 L 12 18 L 10 15 L 28 0 L 31.688 5.375 Z" />
  </g>
</svg>